# xmcd
#
# Track frame offsets: 
#        150
#        16367
#        29110
#        37226
#        51214
#        73567
#        85343
#
# Disc length: 1368 seconds
#
# Revision: 0
# Processed by: cddbd v1.5.2PL0 Copyright (c) Steve Scherf et al.
# Submitted via: ExactAudioCopy v0.99pb3
#
DISCID=60055607
DTITLE=Jo Jo Zep And The Falcons - So Young
DYEAR=1978
DGENRE=Rock
TTITLE0=So Young
TTITLE1=Soon You'll Be Gone
TTITLE2=Show Ya Fun
TTITLE3=Long Distance Call
TTITLE4=I Believe To My Soul
TTITLE5=Crazy Mixed Up World
TTITLE6=It's All Over Now
EXTD=
EXTT0=
EXTT1=
EXTT2=
EXTT3=
EXTT4=
EXTT5=
EXTT6=
PLAYORDER=
